<?xml version="1.0" encoding="iso-8859-1"?>
<!-- Uploaded to: SVG Repo, www.svgrepo.com, Generator: SVG Repo Mixer Tools -->
<svg height="800px" width="800px" version="1.1" id="Layer_1" xmlns="http://www.w3.org/2000/svg" xmlns:xlink="http://www.w3.org/1999/xlink" 
	 viewBox="0 0 501.552 501.552" xml:space="preserve">
<path style="fill:#F2F2F2;" d="M499.462,177.97c4.18-49.11-24.033-74.188-44.931-86.727c-10.449-5.224-20.898-9.404-32.392-10.449
	c-20.898-3.135-72.098-14.629-109.714-55.38c-21.943-22.988-51.2-26.122-76.278-21.943c-28.212,5.224-53.29,18.808-73.143,38.661
	c-40.751,38.661-81.502,52.245-98.22,55.38c-10.449,2.09-20.898,6.269-29.257,12.539C-24.032,147.668,6.27,226.035,19.854,255.293
	c3.135,6.269,6.269,11.494,10.449,17.763c32.392,51.2,32.392,101.355,29.257,124.343c-2.09,17.763,0,35.527,7.314,51.2
	c36.571,85.682,156.735,37.616,156.735,37.616c59.559-24.033,157.78-15.673,180.767-12.539c3.135,0,7.314,1.045,10.449,1.045
	c62.694-1.045,81.502-44.931,85.682-76.278c2.09-15.673,1.045-31.347-3.135-45.976C484.834,313.807,493.193,247.978,499.462,177.97z
	"/>
<circle style="fill:#FFD15C;" cx="215.25" cy="257.382" r="91.951"/>
<path style="fill:#F8B64C;" d="M225.699,338.884c-51.2,0-91.951-40.751-91.951-91.951c0-22.988,8.359-43.886,21.943-59.559
	c-19.853,16.718-32.392,41.796-32.392,70.008c0,51.2,40.751,91.951,91.951,91.951c28.212,0,53.29-12.539,70.008-32.392
	C269.585,330.525,248.687,338.884,225.699,338.884z"/>
<g>
	<circle style="fill:#FFFFFF;" cx="267.495" cy="215.586" r="10.449"/>
	<path style="fill:#FFFFFF;" d="M432.589,146.623c-6.269,4.18-15.673,3.135-22.988,4.18c-7.314-1.045-16.718,1.045-22.988-4.18
		c-6.269-4.18,2.09-22.988,22.988-22.988S438.858,142.444,432.589,146.623z"/>
	<path style="fill:#FFFFFF;" d="M448.262,194.688c-5.224,0-9.404-5.225-13.584-7.314c-4.18-3.135-9.404-7.314-10.449-11.494
		c-2.09-5.224,10.449-11.494,21.943-2.09C456.621,181.105,453.487,194.688,448.262,194.688z"/>
</g>
</svg>